<svg xmlns="http://www.w3.org/2000/svg" xmlns:xlink="http://www.w3.org/1999/xlink" width="1080" zoomAndPan="magnify" viewBox="0 0 810 1439.999935" height="1920" preserveAspectRatio="xMidYMid meet" version="1.0"><defs><clipPath id="6577467b25"><path d="M 243 573.222656 L 430 573.222656 L 430 866.472656 L 243 866.472656 Z M 243 573.222656 " clip-rule="nonzero"/></clipPath></defs><g clip-path="url(#6577467b25)"><path fill="#f1feac" d="M 260.855469 838.566406 C 261.328125 839.136719 261.808594 839.714844 262.296875 840.300781 C 262.988281 841.132812 263.628906 842.007812 264.308594 842.933594 C 265.652344 844.769531 267.042969 846.667969 268.871094 848.242188 C 270.894531 849.980469 273.171875 851.292969 275.375 852.566406 C 277.324219 853.6875 279.164062 854.75 280.800781 856.0625 C 284.984375 859.425781 288.511719 861.265625 293.378906 862.628906 C 301.320312 864.855469 310.503906 866.390625 317.941406 866.738281 C 318.398438 866.761719 318.851562 866.769531 319.304688 866.769531 C 325.328125 866.769531 331.234375 864.964844 336.492188 863.359375 C 339.90625 862.316406 343.4375 861.238281 346.789062 859.671875 C 349.15625 858.566406 351.511719 857.988281 354.007812 857.375 C 355.699219 856.960938 357.445312 856.53125 359.242188 855.917969 C 363.242188 854.558594 367.015625 852.128906 370.773438 848.484375 C 373.964844 845.390625 376.742188 841.839844 379.542969 838.164062 L 390.640625 823.609375 C 392.867188 820.691406 395.171875 817.667969 396.792969 814.183594 C 399.386719 808.617188 399.953125 802.503906 400.503906 796.59375 C 400.578125 795.8125 400.652344 795.03125 400.726562 794.253906 C 400.804688 793.503906 400.882812 792.753906 400.960938 792 C 401.359375 788.234375 401.773438 784.335938 401.570312 780.421875 C 400.839844 766.40625 392.332031 753.964844 385.492188 743.96875 C 381.589844 738.265625 377.199219 731.847656 371.1875 727.285156 C 375.425781 726.207031 379.621094 725.003906 383.769531 723.8125 C 384.386719 723.632812 385 723.457031 385.617188 723.28125 C 393.757812 720.949219 400.015625 717.238281 405.304688 711.609375 C 410.09375 706.515625 413.6875 700.347656 417.847656 693.210938 C 418.21875 692.570312 418.597656 691.917969 418.984375 691.261719 C 419.53125 690.328125 420.132812 689.425781 420.773438 688.472656 C 422.039062 686.582031 423.347656 684.628906 424.203125 682.371094 C 425.144531 679.878906 425.601562 677.289062 426.046875 674.78125 C 426.4375 672.570312 426.804688 670.476562 427.480469 668.492188 C 429.214844 663.410156 429.742188 659.464844 429.363281 654.425781 C 428.742188 646.203125 427.050781 637.046875 424.839844 629.933594 C 422.910156 623.730469 418.886719 618.375 415.335938 613.652344 C 413.1875 610.800781 410.96875 607.847656 408.351562 605.230469 C 406.507812 603.386719 405.15625 601.367188 403.730469 599.230469 C 402.761719 597.785156 401.761719 596.289062 400.574219 594.808594 C 397.929688 591.511719 394.359375 588.796875 389.652344 586.507812 C 385.65625 584.5625 381.367188 583.164062 376.957031 581.785156 L 359.488281 576.324219 C 355.984375 575.226562 352.359375 574.09375 348.527344 573.757812 C 342.414062 573.21875 336.472656 574.769531 330.726562 576.269531 C 329.96875 576.46875 329.210938 576.667969 328.453125 576.859375 C 327.722656 577.046875 326.988281 577.226562 326.253906 577.410156 C 322.578125 578.320312 318.777344 579.261719 315.164062 580.789062 C 302.238281 586.257812 293.449219 598.503906 286.386719 608.34375 C 282.082031 614.339844 277.203125 621.136719 275.164062 628.972656 C 273.539062 635.214844 273.792969 641.597656 274.035156 647.773438 C 274.519531 659.949219 276.351562 671.976562 279.339844 682.558594 C 279.574219 683.378906 279.800781 684.210938 280.042969 685.09375 C 281.828125 691.59375 283.847656 698.960938 288.039062 704.324219 C 290.695312 707.722656 293.363281 710.222656 296.609375 712.226562 C 295.96875 712.382812 295.332031 712.558594 294.710938 712.761719 C 288.011719 714.945312 283.5625 717.976562 278.84375 723.566406 C 274.476562 728.738281 269.496094 733.375 264.042969 737.351562 C 258.144531 741.652344 253.6875 747.878906 250.429688 756.394531 C 245.578125 769.0625 244.632812 782.804688 243.722656 796.097656 C 243.675781 796.734375 243.632812 797.375 243.589844 798.011719 C 243.003906 806.460938 244.355469 813.609375 247.839844 820.5 C 250.996094 826.738281 255.5625 832.222656 260.855469 838.566406 Z M 291.039062 701.980469 C 287.316406 697.21875 285.402344 690.242188 283.710938 684.085938 C 283.46875 683.199219 283.238281 682.359375 283 681.523438 C 280.09375 671.226562 278.308594 659.503906 277.839844 647.625 C 277.605469 641.726562 277.363281 635.628906 278.847656 629.929688 C 280.707031 622.78125 285.167969 616.570312 289.476562 610.5625 C 293.5625 604.871094 297.300781 599.789062 301.636719 595.230469 C 306.550781 590.066406 311.464844 586.488281 316.648438 584.292969 C 319.980469 582.882812 323.636719 581.980469 327.171875 581.101562 C 327.898438 580.921875 328.648438 580.734375 329.390625 580.546875 C 330.15625 580.351562 330.933594 580.148438 331.6875 579.953125 C 336.402344 578.722656 341.257812 577.453125 346.027344 577.453125 C 346.75 577.453125 347.472656 577.484375 348.195312 577.546875 C 351.613281 577.847656 355.039062 578.917969 358.355469 579.953125 L 375.820312 585.417969 C 383.164062 587.714844 392.300781 590.574219 397.605469 597.1875 C 398.691406 598.542969 399.644531 599.96875 400.566406 601.347656 C 402.035156 603.542969 403.550781 605.8125 405.664062 607.921875 C 408.089844 610.347656 410.226562 613.191406 412.292969 615.941406 C 415.824219 620.632812 419.472656 625.488281 421.207031 631.066406 C 423.339844 637.917969 424.96875 646.757812 425.566406 654.710938 C 425.902344 659.191406 425.429688 662.710938 423.878906 667.265625 C 423.109375 669.527344 422.695312 671.863281 422.296875 674.121094 C 421.867188 676.5625 421.460938 678.863281 420.644531 681.023438 C 419.941406 682.875 418.808594 684.566406 417.609375 686.355469 C 416.96875 687.3125 416.304688 688.308594 415.699219 689.339844 C 415.3125 690 414.933594 690.652344 414.558594 691.296875 C 410.515625 698.234375 407.023438 704.226562 402.53125 709.003906 C 397.730469 714.113281 392.023438 717.488281 384.566406 719.625 C 383.953125 719.800781 383.335938 719.976562 382.71875 720.152344 C 370.550781 723.652344 357.980469 727.261719 345.367188 727.261719 C 344.988281 727.261719 344.609375 727.257812 344.230469 727.253906 C 335.871094 727.105469 329.171875 725.257812 323.742188 721.601562 C 317.894531 717.664062 311.5625 714.425781 304.925781 711.980469 C 298.710938 709.691406 294.945312 706.980469 291.039062 701.980469 Z M 247.382812 798.273438 C 247.429688 797.636719 247.472656 796.996094 247.515625 796.355469 C 248.410156 783.34375 249.332031 769.890625 253.980469 757.753906 C 256.972656 749.949219 260.996094 744.28125 266.285156 740.425781 C 271.984375 736.273438 277.1875 731.425781 281.75 726.023438 C 286.023438 720.960938 289.855469 718.347656 295.890625 716.378906 C 297.988281 715.695312 300.28125 715.339844 302.65625 715.1875 C 302.96875 715.3125 303.285156 715.433594 303.609375 715.550781 C 309.960938 717.890625 316.019531 720.988281 321.617188 724.757812 C 327.671875 728.835938 335.046875 730.898438 344.164062 731.058594 C 344.566406 731.0625 344.96875 731.066406 345.375 731.066406 C 352.402344 731.066406 359.339844 730.011719 366.175781 728.484375 C 366.71875 728.8125 367.253906 729.152344 367.773438 729.511719 C 373.859375 733.703125 378.175781 740.011719 382.351562 746.117188 C 386.308594 751.902344 389.808594 757.144531 392.613281 762.777344 C 395.789062 769.160156 397.476562 775 397.769531 780.621094 C 397.957031 784.234375 397.5625 787.980469 397.179688 791.601562 C 397.097656 792.347656 397.015625 793.117188 396.941406 793.878906 C 396.863281 794.664062 396.789062 795.464844 396.71875 796.238281 C 396.195312 801.828125 395.65625 807.609375 393.34375 812.574219 C 391.894531 815.6875 389.71875 818.542969 387.613281 821.304688 L 376.515625 835.859375 C 371.851562 841.976562 366.046875 849.589844 358.019531 852.316406 C 356.375 852.875 354.710938 853.285156 353.101562 853.679688 C 350.535156 854.308594 347.882812 854.960938 345.179688 856.226562 C 342.070312 857.679688 338.667969 858.71875 335.378906 859.722656 C 329.761719 861.4375 323.957031 863.207031 318.121094 862.9375 C 310.953125 862.601562 302.085938 861.117188 294.40625 858.964844 C 290.078125 857.753906 286.933594 856.105469 283.183594 853.09375 C 281.316406 851.597656 279.265625 850.414062 277.277344 849.269531 C 275.132812 848.03125 273.105469 846.863281 271.355469 845.355469 C 269.855469 844.066406 268.652344 842.425781 267.378906 840.6875 C 266.695312 839.753906 265.988281 838.792969 265.222656 837.871094 C 264.734375 837.28125 264.253906 836.703125 263.777344 836.132812 C 258.636719 829.964844 254.195312 824.636719 251.234375 818.785156 C 248.070312 812.527344 246.847656 806.011719 247.382812 798.273438 Z M 247.382812 798.273438 " fill-opacity="1" fill-rule="nonzero"/></g><path fill="#f1feac" d="M 275.6875 801.371094 L 273.429688 807.582031 C 272.910156 809.011719 273.902344 810.304688 276.039062 812.335938 C 277.164062 813.40625 278.667969 814.714844 280.5 816.226562 C 281.546875 817.089844 282.835938 817.523438 284.128906 817.523438 C 285.28125 817.523438 286.433594 817.179688 287.421875 816.480469 L 291.464844 813.617188 C 292.945312 812.570312 293.824219 810.929688 293.875 809.117188 C 293.921875 807.304688 293.136719 805.617188 291.714844 804.492188 L 284.589844 798.847656 C 283.136719 797.695312 281.277344 797.324219 279.492188 797.828125 C 277.707031 798.335938 276.320312 799.625 275.6875 801.371094 Z M 280.53125 801.492188 C 281.125 801.320312 281.742188 801.445312 282.226562 801.828125 L 289.351562 807.472656 C 289.824219 807.847656 290.085938 808.410156 290.070312 809.015625 C 290.054688 809.617188 289.761719 810.164062 289.269531 810.511719 L 285.222656 813.375 C 284.527344 813.867188 283.578125 813.832031 282.921875 813.289062 C 279.523438 810.492188 277.890625 808.882812 277.273438 808.148438 L 279.261719 802.667969 C 279.472656 802.089844 279.933594 801.660156 280.53125 801.492188 Z M 280.53125 801.492188 " fill-opacity="1" fill-rule="nonzero"/><path fill="#f1feac" d="M 266 769.652344 C 266.285156 771.980469 268 773.929688 270.269531 774.5 L 273.339844 775.273438 C 273.800781 775.390625 274.265625 775.445312 274.730469 775.445312 C 275.886719 775.445312 277.023438 775.097656 277.988281 774.425781 C 279.339844 773.484375 280.222656 772.003906 280.402344 770.367188 L 281.03125 764.65625 C 281.238281 762.792969 280.515625 760.949219 279.097656 759.722656 C 277.683594 758.496094 275.757812 758.039062 273.941406 758.503906 L 269.726562 759.585938 C 266.90625 760.3125 265.085938 763.035156 265.5 765.921875 C 265.710938 767.398438 265.878906 768.65625 266 769.652344 Z M 270.671875 763.273438 L 274.890625 762.191406 C 275.050781 762.148438 275.210938 762.128906 275.371094 762.128906 C 275.820312 762.128906 276.253906 762.289062 276.605469 762.597656 C 277.082031 763.011719 277.316406 763.609375 277.25 764.238281 L 276.621094 769.949219 C 276.558594 770.503906 276.273438 770.984375 275.816406 771.300781 C 275.359375 771.621094 274.808594 771.71875 274.269531 771.582031 L 271.199219 770.8125 C 270.433594 770.617188 269.875 769.980469 269.777344 769.191406 C 269.652344 768.167969 269.480469 766.886719 269.265625 765.382812 C 269.128906 764.421875 269.734375 763.511719 270.671875 763.273438 Z M 270.671875 763.273438 " fill-opacity="1" fill-rule="nonzero"/><path fill="#f1feac" d="M 313.082031 749.910156 L 317.007812 750.386719 C 317.238281 750.414062 317.46875 750.425781 317.699219 750.425781 C 319.160156 750.425781 320.570312 749.867188 321.640625 748.839844 C 322.878906 747.652344 323.511719 745.988281 323.378906 744.277344 L 322.695312 735.59375 C 322.574219 734.042969 321.851562 732.644531 320.65625 731.652344 C 319.457031 730.65625 317.949219 730.203125 316.402344 730.367188 L 313.386719 730.691406 C 310.5625 730.992188 308.371094 733.359375 308.292969 736.199219 L 308.0625 744.082031 C 307.980469 747.046875 310.136719 749.554688 313.082031 749.910156 Z M 312.09375 736.308594 C 312.121094 735.363281 312.851562 734.574219 313.792969 734.472656 L 316.808594 734.152344 C 317.320312 734.09375 317.824219 734.246094 318.222656 734.578125 C 318.621094 734.910156 318.863281 735.375 318.902344 735.890625 L 319.585938 744.574219 C 319.628906 745.144531 319.417969 745.699219 319.007812 746.09375 C 318.59375 746.488281 318.03125 746.675781 317.464844 746.609375 L 313.539062 746.132812 C 312.558594 746.015625 311.839844 745.179688 311.867188 744.191406 Z M 312.09375 736.308594 " fill-opacity="1" fill-rule="nonzero"/><path fill="#f1feac" d="M 320.238281 778.867188 L 316.199219 781.308594 C 313.8125 782.753906 312.820312 785.6875 313.847656 788.285156 L 315.546875 792.589844 C 316.273438 794.429688 317.863281 795.742188 319.804688 796.105469 C 320.160156 796.171875 320.515625 796.203125 320.867188 796.203125 C 322.441406 796.203125 323.949219 795.550781 325.042969 794.367188 L 329.226562 789.835938 C 331.160156 787.738281 331.246094 784.507812 329.417969 782.316406 L 327.574219 780.097656 C 325.753906 777.914062 322.667969 777.394531 320.238281 778.867188 Z M 324.648438 782.53125 L 326.496094 784.75 C 327.101562 785.480469 327.074219 786.554688 326.429688 787.253906 L 322.25 791.785156 C 321.605469 792.480469 320.8125 792.421875 320.503906 792.363281 C 320.195312 792.304688 319.433594 792.074219 319.085938 791.195312 L 317.386719 786.886719 C 317.042969 786.023438 317.375 785.046875 318.167969 784.566406 L 322.207031 782.125 C 322.515625 781.9375 322.855469 781.84375 323.195312 781.84375 C 323.738281 781.84375 324.273438 782.082031 324.648438 782.53125 Z M 324.648438 782.53125 " fill-opacity="1" fill-rule="nonzero"/><path fill="#f1feac" d="M 334.703125 836.71875 L 336.832031 838.1875 C 337.957031 838.960938 339.257812 839.339844 340.558594 839.339844 C 342.199219 839.339844 343.835938 838.730469 345.089844 837.542969 L 347.585938 835.175781 C 348.730469 834.089844 349.445312 832.632812 349.605469 831.0625 C 349.761719 829.496094 349.351562 827.921875 348.445312 826.628906 L 346.902344 824.429688 C 345.78125 822.835938 344.023438 821.824219 342.082031 821.65625 C 340.140625 821.492188 338.234375 822.1875 336.859375 823.570312 L 333.773438 826.667969 C 332.394531 828.054688 331.707031 829.964844 331.886719 831.910156 C 332.066406 833.859375 333.09375 835.609375 334.703125 836.71875 Z M 336.472656 829.351562 L 339.558594 826.253906 C 340.136719 825.671875 340.9375 825.378906 341.757812 825.449219 C 342.574219 825.515625 343.316406 825.945312 343.785156 826.617188 L 345.328125 828.816406 C 346.113281 829.929688 345.957031 831.476562 344.96875 832.414062 L 342.46875 834.785156 C 341.527344 835.679688 340.0625 835.792969 338.992188 835.054688 L 336.863281 833.585938 C 336.183594 833.117188 335.753906 832.382812 335.675781 831.5625 C 335.601562 830.742188 335.890625 829.9375 336.472656 829.351562 Z M 336.472656 829.351562 " fill-opacity="1" fill-rule="nonzero"/><path fill="#f1feac" d="M 300.59375 843.65625 C 300.746094 845.398438 301.671875 846.953125 303.132812 847.917969 C 304.082031 848.546875 305.167969 848.867188 306.269531 848.867188 C 306.867188 848.867188 307.464844 848.773438 308.046875 848.585938 L 309.324219 848.167969 C 311.003906 847.621094 312.3125 846.351562 312.914062 844.691406 L 314.832031 839.414062 C 315.460938 837.679688 315.230469 835.804688 314.195312 834.273438 C 313.160156 832.742188 311.503906 831.828125 309.660156 831.769531 L 305.960938 831.644531 C 304.332031 831.589844 302.753906 832.238281 301.632812 833.421875 C 300.507812 834.605469 299.949219 836.214844 300.089844 837.839844 Z M 304.394531 836.039062 C 304.757812 835.65625 305.242188 835.445312 305.769531 835.445312 C 305.789062 835.445312 305.8125 835.445312 305.835938 835.449219 L 309.53125 835.570312 C 310.148438 835.589844 310.699219 835.894531 311.042969 836.40625 C 311.386719 836.914062 311.464844 837.539062 311.253906 838.117188 L 309.339844 843.394531 C 309.136719 843.945312 308.703125 844.367188 308.140625 844.550781 L 306.867188 844.96875 C 306.3125 845.148438 305.714844 845.066406 305.230469 844.746094 C 304.746094 844.425781 304.4375 843.90625 304.386719 843.328125 L 303.878906 837.511719 C 303.832031 836.960938 304.015625 836.4375 304.394531 836.039062 Z M 304.394531 836.039062 " fill-opacity="1" fill-rule="nonzero"/><path fill="#f1feac" d="M 367.285156 805.246094 L 368.308594 806.109375 C 369.351562 806.988281 370.640625 807.453125 371.972656 807.453125 C 372.363281 807.453125 372.761719 807.414062 373.15625 807.328125 L 378.648438 806.175781 C 380.457031 805.796875 381.929688 804.613281 382.683594 802.925781 C 383.441406 801.238281 383.34375 799.351562 382.425781 797.75 L 380.578125 794.542969 C 379.765625 793.128906 378.386719 792.128906 376.789062 791.800781 C 375.191406 791.472656 373.523438 791.84375 372.21875 792.820312 L 367.542969 796.3125 C 366.140625 797.363281 365.308594 798.96875 365.257812 800.71875 C 365.207031 802.46875 365.945312 804.117188 367.285156 805.246094 Z M 369.820312 799.363281 L 374.496094 795.867188 C 374.832031 795.617188 375.222656 795.488281 375.625 795.488281 C 375.757812 795.488281 375.886719 795.5 376.019531 795.527344 C 376.558594 795.640625 377.007812 795.964844 377.28125 796.441406 L 379.125 799.648438 C 379.433594 800.179688 379.464844 800.808594 379.210938 801.371094 C 378.960938 801.933594 378.472656 802.328125 377.867188 802.453125 L 372.375 803.605469 C 371.800781 803.726562 371.210938 803.578125 370.761719 803.199219 L 369.734375 802.335938 C 369.289062 801.960938 369.042969 801.410156 369.0625 800.828125 C 369.078125 800.246094 369.355469 799.710938 369.820312 799.363281 Z M 369.820312 799.363281 " fill-opacity="1" fill-rule="nonzero"/><path fill="#f1feac" d="M 351.464844 756.960938 C 351.933594 758.746094 353.1875 760.152344 354.90625 760.824219 C 355.585938 761.089844 356.292969 761.222656 356.992188 761.222656 C 358.058594 761.222656 359.117188 760.914062 360.054688 760.316406 L 363.347656 758.210938 C 365.976562 756.527344 366.765625 753.007812 365.101562 750.367188 L 360.292969 742.71875 C 359.46875 741.410156 358.183594 740.507812 356.671875 740.183594 C 355.164062 739.851562 353.621094 740.140625 352.328125 740.992188 L 351.4375 741.578125 C 349.386719 742.925781 348.429688 745.421875 349.054688 747.792969 Z M 353.527344 744.757812 L 354.417969 744.167969 C 354.734375 743.960938 355.09375 743.855469 355.457031 743.855469 C 355.59375 743.855469 355.730469 743.871094 355.867188 743.898438 C 356.371094 744.007812 356.796875 744.308594 357.070312 744.746094 L 361.882812 752.394531 C 362.433594 753.273438 362.171875 754.445312 361.296875 755.003906 L 358.003906 757.109375 C 357.484375 757.441406 356.859375 757.503906 356.289062 757.28125 C 355.71875 757.054688 355.300781 756.585938 355.144531 755.992188 L 352.734375 746.828125 C 352.527344 746.035156 352.84375 745.203125 353.527344 744.757812 Z M 353.527344 744.757812 " fill-opacity="1" fill-rule="nonzero"/><path fill="#f1feac" d="M 377.820312 691.964844 L 384.429688 691.964844 C 385.949219 691.964844 386.828125 690.59375 388.007812 687.890625 C 388.628906 686.464844 389.347656 684.609375 390.140625 682.367188 C 390.996094 679.949219 390.125 677.238281 388.015625 675.777344 L 383.945312 672.953125 C 382.457031 671.917969 380.613281 671.652344 378.894531 672.226562 C 377.171875 672.796875 375.855469 674.113281 375.28125 675.832031 L 372.40625 684.457031 C 371.820312 686.214844 372.105469 688.089844 373.191406 689.59375 C 374.277344 691.101562 375.964844 691.964844 377.820312 691.964844 Z M 376.019531 685.660156 L 378.890625 677.035156 C 379.082031 676.464844 379.519531 676.027344 380.09375 675.835938 C 380.667969 675.644531 381.28125 675.734375 381.777344 676.078125 L 385.847656 678.902344 C 386.550781 679.390625 386.839844 680.292969 386.554688 681.09375 C 385.082031 685.246094 384.128906 687.328125 383.652344 688.160156 L 377.820312 688.160156 C 377.203125 688.160156 376.640625 687.871094 376.277344 687.371094 C 375.917969 686.871094 375.824219 686.246094 376.019531 685.660156 Z M 376.019531 685.660156 " fill-opacity="1" fill-rule="nonzero"/><path fill="#f1feac" d="M 354.089844 703.078125 C 353.921875 701.4375 353.054688 699.949219 351.707031 699 C 350.359375 698.046875 348.667969 697.722656 347.066406 698.113281 L 341.484375 699.472656 C 339.664062 699.914062 338.175781 701.222656 337.507812 702.972656 C 336.835938 704.71875 337.066406 706.6875 338.121094 708.234375 L 340.578125 711.824219 C 341.675781 713.433594 343.457031 714.3125 345.289062 714.3125 C 346.199219 714.3125 347.121094 714.09375 347.976562 713.640625 C 349.296875 712.933594 350.417969 712.347656 351.3125 711.894531 C 353.402344 710.832031 354.648438 708.554688 354.410156 706.226562 Z M 349.589844 708.5 C 348.671875 708.96875 347.527344 709.566406 346.183594 710.28125 C 345.328125 710.738281 344.265625 710.480469 343.71875 709.679688 L 341.265625 706.085938 C 340.90625 705.5625 340.832031 704.925781 341.058594 704.332031 C 341.285156 703.742188 341.769531 703.316406 342.382812 703.167969 L 347.964844 701.8125 C 348.117188 701.773438 348.273438 701.753906 348.421875 701.753906 C 348.808594 701.753906 349.183594 701.875 349.511719 702.105469 C 349.964844 702.425781 350.246094 702.910156 350.304688 703.464844 L 350.625 706.613281 C 350.707031 707.398438 350.300781 708.140625 349.589844 708.5 Z M 349.589844 708.5 " fill-opacity="1" fill-rule="nonzero"/><path fill="#f1feac" d="M 312.921875 681.082031 C 315.738281 680.152344 317.355469 677.269531 316.6875 674.378906 L 315.792969 670.527344 C 315.40625 668.855469 314.300781 667.457031 312.757812 666.699219 C 311.21875 665.941406 309.4375 665.910156 307.875 666.621094 L 299.945312 670.226562 C 298.53125 670.871094 297.464844 672.03125 296.9375 673.492188 C 296.414062 674.953125 296.5 676.527344 297.183594 677.925781 L 298.515625 680.652344 C 299.492188 682.648438 301.523438 683.847656 303.65625 683.847656 C 304.246094 683.847656 304.84375 683.753906 305.433594 683.5625 Z M 301.933594 678.980469 L 300.601562 676.253906 C 300.375 675.789062 300.34375 675.265625 300.519531 674.777344 C 300.695312 674.292969 301.050781 673.90625 301.519531 673.691406 L 309.449219 670.085938 C 309.699219 669.972656 309.96875 669.914062 310.234375 669.914062 C 310.523438 669.914062 310.808594 669.980469 311.074219 670.113281 C 311.589844 670.363281 311.957031 670.828125 312.085938 671.386719 L 312.980469 675.238281 C 313.203125 676.199219 312.664062 677.160156 311.726562 677.472656 L 304.234375 679.949219 C 303.339844 680.246094 302.347656 679.828125 301.933594 678.980469 Z M 301.933594 678.980469 " fill-opacity="1" fill-rule="nonzero"/><path fill="#f1feac" d="M 341.570312 647.960938 L 340.113281 650.453125 C 338.683594 652.910156 339.25 655.984375 341.460938 657.769531 L 345.136719 660.730469 C 346.1875 661.578125 347.453125 662 348.714844 662 C 350.066406 662 351.417969 661.515625 352.496094 660.5625 L 355.964844 657.492188 C 357.441406 656.183594 358.132812 654.242188 357.8125 652.292969 C 357.488281 650.34375 356.210938 648.726562 354.390625 647.960938 L 348.703125 645.574219 C 346.074219 644.472656 343.003906 645.496094 341.570312 647.960938 Z M 354.058594 652.914062 C 354.109375 653.222656 354.152344 654.015625 353.441406 654.644531 L 349.972656 657.710938 C 349.277344 658.328125 348.246094 658.351562 347.523438 657.769531 L 343.851562 654.808594 C 343.113281 654.214844 342.925781 653.1875 343.402344 652.371094 L 344.855469 649.878906 C 345.332031 649.058594 346.355469 648.71875 347.230469 649.085938 L 352.917969 651.46875 C 353.792969 651.835938 354.003906 652.601562 354.058594 652.914062 Z M 354.058594 652.914062 " fill-opacity="1" fill-rule="nonzero"/><path fill="#f1feac" d="M 377.804688 626.886719 L 381.773438 628.730469 C 382.652344 629.136719 383.597656 629.34375 384.542969 629.34375 C 385.496094 629.34375 386.453125 629.132812 387.34375 628.714844 C 389.113281 627.878906 390.410156 626.316406 390.902344 624.425781 L 391.554688 621.921875 C 392.335938 618.933594 390.894531 615.765625 388.132812 614.382812 L 385.054688 612.84375 C 383.644531 612.140625 382.027344 611.964844 380.5 612.351562 C 378.972656 612.738281 377.632812 613.664062 376.730469 614.953125 L 375.1875 617.15625 C 374.070312 618.753906 373.71875 620.75 374.226562 622.632812 C 374.730469 624.515625 376.035156 626.066406 377.804688 626.886719 Z M 378.304688 619.335938 L 379.847656 617.136719 C 380.628906 616.019531 382.136719 615.636719 383.351562 616.246094 L 386.433594 617.785156 C 387.597656 618.367188 388.203125 619.703125 387.875 620.960938 L 387.21875 623.464844 C 387.011719 624.261719 386.464844 624.921875 385.722656 625.269531 C 384.976562 625.621094 384.121094 625.625 383.375 625.277344 L 379.40625 623.4375 C 378.664062 623.089844 378.113281 622.4375 377.898438 621.644531 C 377.6875 620.851562 377.835938 620.011719 378.304688 619.335938 Z M 378.304688 619.335938 " fill-opacity="1" fill-rule="nonzero"/><path fill="#f1feac" d="M 395.941406 653.175781 C 396.449219 654.726562 397.59375 655.988281 399.089844 656.636719 C 399.816406 656.953125 400.589844 657.109375 401.367188 657.109375 C 402.1875 657.109375 403.007812 656.933594 403.769531 656.578125 L 409.0625 654.117188 C 410.652344 653.378906 411.796875 651.980469 412.207031 650.28125 C 412.613281 648.578125 412.230469 646.808594 411.152344 645.429688 L 410.328125 644.375 C 409.238281 642.984375 407.601562 642.183594 405.832031 642.183594 L 400.21875 642.183594 C 398.371094 642.183594 396.6875 643.042969 395.601562 644.539062 C 394.519531 646.035156 394.222656 647.898438 394.796875 649.65625 Z M 398.683594 646.773438 C 399.042969 646.277344 399.605469 645.992188 400.21875 645.992188 L 405.832031 645.992188 C 406.421875 645.992188 406.96875 646.257812 407.328125 646.71875 L 408.15625 647.777344 C 408.515625 648.234375 408.640625 648.824219 408.507812 649.390625 C 408.371094 649.957031 407.988281 650.421875 407.460938 650.667969 L 402.167969 653.128906 C 401.667969 653.363281 401.113281 653.367188 400.609375 653.148438 C 400.101562 652.929688 399.730469 652.519531 399.558594 651.996094 L 398.414062 648.480469 C 398.222656 647.894531 398.320312 647.273438 398.683594 646.773438 Z M 398.683594 646.773438 " fill-opacity="1" fill-rule="nonzero"/><path fill="#f1feac" d="M 336.835938 604.148438 L 341.714844 607.347656 C 342.660156 607.96875 343.742188 608.285156 344.835938 608.285156 C 345.4375 608.285156 346.042969 608.191406 346.632812 607.996094 C 348.296875 607.445312 349.59375 606.1875 350.199219 604.542969 L 350.660156 603.285156 C 351.269531 601.628906 351.085938 599.816406 350.152344 598.3125 L 347.195312 593.542969 C 346.222656 591.972656 344.605469 590.992188 342.761719 590.859375 C 340.917969 590.722656 339.179688 591.457031 337.988281 592.871094 L 335.601562 595.699219 C 334.550781 596.945312 334.082031 598.585938 334.316406 600.199219 C 334.554688 601.8125 335.46875 603.253906 336.835938 604.148438 Z M 338.511719 598.152344 L 340.894531 595.324219 C 341.261719 594.890625 341.78125 594.648438 342.34375 594.648438 C 342.390625 594.648438 342.4375 594.652344 342.484375 594.65625 C 343.097656 594.699219 343.636719 595.023438 343.960938 595.546875 L 346.921875 600.320312 C 347.230469 600.820312 347.292969 601.421875 347.089844 601.972656 L 346.625 603.234375 C 346.425781 603.78125 345.992188 604.199219 345.441406 604.382812 C 344.886719 604.566406 344.289062 604.484375 343.800781 604.167969 L 338.921875 600.964844 C 338.460938 600.664062 338.164062 600.195312 338.082031 599.652344 C 338.003906 599.105469 338.15625 598.574219 338.511719 598.152344 Z M 338.511719 598.152344 " fill-opacity="1" fill-rule="nonzero"/><path fill="#f1feac" d="M 302.417969 641.289062 L 310.210938 635.894531 C 311.730469 634.84375 312.625 633.1875 312.667969 631.339844 C 312.714844 629.496094 311.898438 627.796875 310.433594 626.675781 L 307.332031 624.296875 C 304.851562 622.402344 301.277344 622.859375 299.359375 625.324219 L 293.8125 632.457031 C 292.863281 633.675781 292.457031 635.191406 292.664062 636.722656 C 292.871094 638.253906 293.667969 639.609375 294.90625 640.53125 L 295.761719 641.171875 C 296.773438 641.925781 297.972656 642.304688 299.171875 642.304688 C 300.304688 642.304688 301.441406 641.964844 302.417969 641.289062 Z M 298.039062 638.121094 L 297.179688 637.480469 C 296.769531 637.175781 296.503906 636.722656 296.433594 636.214844 C 296.363281 635.703125 296.5 635.199219 296.816406 634.792969 L 302.363281 627.660156 C 302.738281 627.183594 303.296875 626.929688 303.867188 626.929688 C 304.269531 626.929688 304.675781 627.058594 305.015625 627.320312 L 308.121094 629.695312 C 308.609375 630.070312 308.878906 630.636719 308.867188 631.25 C 308.851562 631.863281 308.554688 632.417969 308.046875 632.765625 L 300.253906 638.160156 C 299.582031 638.625 298.691406 638.609375 298.039062 638.121094 Z M 298.039062 638.121094 " fill-opacity="1" fill-rule="nonzero"/><path fill="#f1feac" d="M 562.25 734.253906 C 560.308594 727.707031 556.148438 722.023438 552.476562 717.007812 C 552.253906 716.703125 552.03125 716.398438 551.808594 716.097656 C 550.53125 714.355469 548.660156 713.175781 546.542969 712.769531 C 544.433594 712.363281 542.257812 712.757812 540.414062 713.882812 L 540.367188 713.910156 C 538.179688 715.238281 535.871094 716.371094 533.902344 717.300781 C 532.9375 717.757812 532.046875 718.113281 531.179688 718.394531 C 530.742188 718.535156 530.332031 718.648438 529.929688 718.742188 C 529.660156 718.804688 529.386719 718.867188 529.113281 718.929688 C 527.757812 719.246094 526.363281 719.570312 525 719.796875 C 524.996094 719.796875 524.988281 719.796875 524.984375 719.796875 L 524.882812 719.816406 C 524.8125 719.828125 524.738281 719.839844 524.667969 719.851562 C 524.640625 719.855469 524.613281 719.859375 524.585938 719.863281 C 524.460938 719.882812 524.332031 719.898438 524.207031 719.914062 C 524.078125 719.925781 523.949219 719.941406 523.824219 719.949219 C 523.742188 719.953125 523.664062 719.957031 523.582031 719.960938 C 522.28125 720.011719 520.957031 719.90625 519.550781 719.789062 C 519.167969 719.757812 518.789062 719.730469 518.410156 719.703125 C 518.390625 719.699219 518.371094 719.699219 518.351562 719.699219 C 517.828125 719.660156 517.359375 719.574219 516.917969 719.441406 C 516.90625 719.4375 516.890625 719.433594 516.878906 719.429688 L 516.445312 719.296875 C 516.199219 719.21875 515.953125 719.144531 515.707031 719.066406 C 515.691406 719.0625 515.679688 719.058594 515.667969 719.050781 C 515.152344 718.890625 514.636719 718.726562 514.128906 718.554688 C 514.125 718.554688 514.121094 718.550781 514.113281 718.550781 C 513.859375 718.464844 513.605469 718.375 513.355469 718.285156 C 513.351562 718.285156 513.347656 718.28125 513.34375 718.28125 C 513.019531 718.164062 512.699219 718.042969 512.386719 717.917969 C 512.300781 717.882812 512.210938 717.847656 512.121094 717.804688 C 511.945312 717.722656 511.753906 717.617188 511.527344 717.476562 C 511.296875 717.335938 511.058594 717.191406 510.8125 717.042969 C 510.222656 716.683594 509.609375 716.3125 509.011719 715.917969 C 508.40625 715.523438 507.628906 715.5 507.007812 715.867188 C 505.203125 716.917969 503.261719 717.859375 501.386719 718.769531 L 501.367188 718.777344 C 499.9375 719.46875 498.480469 720.035156 497.03125 720.460938 C 495.261719 720.980469 493.359375 721.355469 491.519531 721.71875 C 491.203125 721.78125 490.886719 721.84375 490.574219 721.90625 C 489.902344 722.039062 489.246094 722.136719 488.625 722.195312 C 487.976562 722.253906 487.359375 722.273438 486.785156 722.25 C 486.351562 722.230469 485.898438 722.21875 485.460938 722.203125 C 483.863281 722.160156 482.210938 722.113281 480.757812 721.820312 C 477.050781 721.074219 473.988281 719.632812 470.832031 717.144531 C 469.585938 716.164062 468.402344 714.863281 467.316406 713.28125 C 466.453125 712.019531 465.769531 710.515625 465.113281 709.058594 L 465.074219 708.972656 C 464.992188 708.792969 464.925781 708.609375 464.871094 708.429688 C 464.675781 707.753906 464.46875 707.027344 464.292969 706.3125 C 464.09375 705.5 463.386719 704.914062 462.554688 704.867188 L 461.128906 704.785156 C 461.105469 704.777344 461.082031 704.773438 461.058594 704.769531 C 460.964844 704.746094 460.871094 704.722656 460.777344 704.699219 C 460.542969 704.640625 460.3125 704.578125 460.089844 704.507812 C 459.878906 704.445312 459.667969 704.382812 459.457031 704.316406 C 457.550781 703.742188 455.578125 703.148438 453.871094 702.316406 C 453.523438 702.144531 453.179688 701.957031 452.855469 701.761719 C 451.144531 700.71875 449.695312 699.765625 448.417969 698.839844 C 447.855469 698.433594 447.328125 697.972656 446.855469 697.476562 C 446.671875 697.285156 446.488281 697.09375 446.304688 696.902344 C 445.023438 695.566406 443.695312 694.183594 442.710938 692.714844 C 442.507812 692.414062 442.3125 692.097656 442.136719 691.769531 L 442.113281 691.730469 C 441.285156 690.207031 439.832031 689.167969 438.121094 688.878906 C 436.410156 688.585938 434.6875 689.089844 433.402344 690.257812 C 427.339844 695.753906 422.347656 702.300781 416.914062 709.667969 C 412.304688 715.917969 407.078125 723.003906 404.828125 731.207031 C 403.039062 737.746094 403.21875 744.464844 403.390625 750.964844 C 403.734375 763.78125 405.5 776.464844 408.5 787.644531 C 408.734375 788.515625 408.964844 789.394531 409.207031 790.324219 C 410.996094 797.1875 413.023438 804.960938 417.351562 810.652344 C 421.832031 816.539062 426.375 819.902344 433.554688 822.652344 C 440.21875 825.203125 446.5625 828.554688 452.414062 832.601562 C 458.71875 836.96875 466.441406 839.234375 476.015625 839.523438 C 476.761719 839.546875 477.507812 839.558594 478.25 839.558594 C 491.742188 839.558594 504.980469 835.9375 517.796875 832.433594 C 518.449219 832.253906 519.097656 832.078125 519.746094 831.902344 C 528.335938 829.558594 534.960938 825.746094 540.597656 819.902344 C 545.699219 814.609375 549.5625 808.171875 554.039062 800.714844 C 554.441406 800.042969 554.847656 799.367188 555.261719 798.679688 C 555.851562 797.699219 556.5 796.757812 557.1875 795.761719 C 558.542969 793.792969 559.941406 791.757812 560.871094 789.402344 C 561.894531 786.796875 562.410156 784.082031 562.910156 781.453125 C 563.351562 779.121094 563.769531 776.921875 564.511719 774.832031 C 566.398438 769.515625 567.007812 765.382812 566.675781 760.082031 C 566.136719 751.421875 564.484375 741.765625 562.25 734.253906 Z M 513.402344 722.375 L 513.433594 722.332031 C 514.070312 722.542969 514.703125 722.738281 515.324219 722.933594 L 515.746094 723.0625 C 516.480469 723.292969 517.246094 723.433594 518.082031 723.492188 C 518.464844 723.519531 518.855469 723.550781 519.242188 723.582031 C 520.699219 723.699219 522.203125 723.824219 523.730469 723.765625 C 523.730469 723.761719 523.734375 723.761719 523.734375 723.761719 C 523.71875 723.945312 523.6875 724.121094 523.636719 724.300781 L 522.914062 726.929688 C 522.679688 727.792969 522.074219 728.503906 521.257812 728.875 C 520.441406 729.246094 519.507812 729.238281 518.699219 728.847656 L 514.546875 726.855469 C 513.742188 726.46875 513.152344 725.75 512.929688 724.882812 C 512.707031 724.015625 512.878906 723.101562 513.402344 722.375 Z M 560.925781 773.558594 C 560.085938 775.921875 559.621094 778.375 559.171875 780.742188 C 558.683594 783.3125 558.222656 785.734375 557.328125 788.007812 C 556.5625 789.957031 555.34375 791.726562 554.054688 793.601562 C 553.363281 794.601562 552.652344 795.636719 552.003906 796.714844 C 551.585938 797.402344 551.179688 798.085938 550.777344 798.757812 C 546.421875 806.015625 542.660156 812.28125 537.855469 817.261719 C 532.71875 822.589844 526.648438 826.074219 518.746094 828.230469 C 518.097656 828.40625 517.445312 828.585938 516.796875 828.761719 C 503.539062 832.386719 489.828125 836.136719 476.132812 835.722656 C 467.3125 835.453125 460.261719 833.410156 454.578125 829.476562 C 448.480469 825.25 441.863281 821.761719 434.914062 819.097656 C 428.378906 816.597656 424.441406 813.683594 420.378906 808.347656 C 416.511719 803.265625 414.585938 795.878906 412.890625 789.367188 C 412.644531 788.425781 412.414062 787.539062 412.175781 786.65625 C 409.253906 775.765625 407.53125 763.386719 407.195312 750.863281 C 407.027344 744.640625 406.855469 738.207031 408.5 732.214844 C 410.5625 724.691406 415.347656 718.203125 419.976562 711.925781 C 425.285156 704.726562 430.15625 698.335938 435.957031 693.074219 C 436.296875 692.765625 436.730469 692.601562 437.175781 692.601562 C 437.277344 692.601562 437.382812 692.609375 437.484375 692.628906 C 438.035156 692.722656 438.503906 693.058594 438.773438 693.546875 L 438.792969 693.589844 C 439.027344 694.019531 439.28125 694.4375 439.550781 694.839844 C 440.722656 696.582031 442.164062 698.082031 443.558594 699.535156 C 443.742188 699.726562 443.921875 699.914062 444.101562 700.101562 C 444.734375 700.765625 445.4375 701.378906 446.1875 701.921875 C 447.546875 702.90625 449.078125 703.917969 450.875 705.007812 C 451.300781 705.269531 451.746094 705.511719 452.203125 705.734375 C 454.1875 706.703125 456.402344 707.371094 458.359375 707.960938 C 458.566406 708.023438 458.777344 708.085938 458.984375 708.148438 C 459.265625 708.234375 459.554688 708.316406 459.84375 708.386719 C 459.960938 708.417969 460.078125 708.445312 460.191406 708.472656 C 460.28125 708.492188 460.371094 708.515625 460.464844 708.535156 C 460.5625 708.554688 460.660156 708.570312 460.757812 708.574219 L 460.957031 708.585938 C 461.046875 708.894531 461.132812 709.199219 461.21875 709.492188 C 461.320312 709.847656 461.453125 710.199219 461.605469 710.542969 L 461.644531 710.625 C 462.375 712.234375 463.125 713.898438 464.179688 715.433594 C 465.484375 717.332031 466.929688 718.914062 468.476562 720.132812 C 472.078125 722.972656 475.742188 724.695312 480.007812 725.550781 C 481.777344 725.90625 483.675781 725.960938 485.351562 726.007812 C 485.796875 726.019531 486.21875 726.03125 486.628906 726.050781 C 487.371094 726.082031 488.160156 726.058594 488.976562 725.984375 C 489.730469 725.914062 490.519531 725.796875 491.320312 725.636719 C 491.628906 725.574219 491.941406 725.511719 492.253906 725.449219 C 494.175781 725.070312 496.164062 724.679688 498.101562 724.113281 C 499.75 723.628906 501.410156 722.984375 503.027344 722.203125 L 503.046875 722.191406 C 504.648438 721.414062 506.296875 720.617188 507.910156 719.726562 C 508.234375 719.925781 508.546875 720.117188 508.839844 720.296875 C 509.078125 720.441406 509.308594 720.578125 509.53125 720.714844 C 509.640625 720.78125 509.746094 720.84375 509.847656 720.902344 C 509.039062 722.402344 508.816406 724.148438 509.242188 725.820312 C 509.742188 727.78125 511.074219 729.410156 512.902344 730.285156 L 517.054688 732.277344 C 517.988281 732.726562 518.996094 732.953125 520.003906 732.953125 C 520.96875 732.953125 521.933594 732.746094 522.835938 732.335938 C 524.679688 731.496094 526.046875 729.890625 526.585938 727.933594 L 527.304688 725.308594 C 527.5 724.605469 527.578125 723.894531 527.542969 723.183594 C 528.367188 723.011719 529.179688 722.824219 529.976562 722.636719 C 530.246094 722.574219 530.515625 722.511719 530.78125 722.449219 C 531.285156 722.335938 531.8125 722.1875 532.347656 722.015625 C 533.371094 721.683594 534.414062 721.265625 535.527344 720.738281 C 537.585938 719.765625 540.007812 718.582031 542.347656 717.160156 L 542.398438 717.128906 C 544.542969 715.820312 547.269531 716.34375 548.742188 718.347656 C 548.964844 718.648438 549.183594 718.953125 549.40625 719.253906 C 553.066406 724.253906 556.847656 729.421875 558.605469 735.335938 C 560.757812 742.589844 562.355469 751.929688 562.878906 760.320312 C 563.175781 765.058594 562.628906 768.769531 560.925781 773.558594 Z M 560.925781 773.558594 " fill-opacity="1" fill-rule="nonzero"/><path fill="#f1feac" d="M 522.886719 782.085938 L 518.640625 779.054688 C 517.113281 777.964844 515.207031 777.664062 513.417969 778.234375 C 511.628906 778.804688 510.25 780.148438 509.632812 781.921875 L 506.488281 790.964844 C 505.855469 792.78125 506.128906 794.722656 507.230469 796.296875 C 508.335938 797.871094 510.070312 798.785156 511.992188 798.8125 L 518.953125 798.902344 C 518.960938 798.902344 518.972656 798.902344 518.984375 798.902344 C 520.507812 798.902344 521.425781 797.488281 522.679688 794.71875 C 523.351562 793.230469 524.132812 791.285156 525 788.9375 C 525.917969 786.445312 525.050781 783.628906 522.886719 782.085938 Z M 521.429688 787.617188 C 519.792969 792.054688 518.75 794.242188 518.238281 795.085938 L 512.039062 795.007812 C 511.355469 794.996094 510.738281 794.671875 510.347656 794.113281 C 509.953125 793.550781 509.855469 792.859375 510.082031 792.214844 L 513.226562 783.171875 C 513.445312 782.542969 513.9375 782.0625 514.574219 781.859375 C 515.210938 781.65625 515.886719 781.765625 516.429688 782.152344 L 520.679688 785.183594 C 521.449219 785.730469 521.757812 786.734375 521.429688 787.617188 Z M 521.429688 787.617188 " fill-opacity="1" fill-rule="nonzero"/><path fill="#f1feac" d="M 486.746094 810.300781 C 486.59375 808.601562 485.714844 807.050781 484.335938 806.046875 C 482.953125 805.042969 481.207031 804.6875 479.542969 805.070312 L 473.644531 806.425781 C 471.753906 806.859375 470.195312 808.191406 469.480469 809.996094 C 468.761719 811.796875 468.972656 813.835938 470.046875 815.449219 L 472.582031 819.269531 C 473.714844 820.96875 475.582031 821.90625 477.503906 821.90625 C 478.421875 821.90625 479.351562 821.691406 480.21875 821.242188 C 481.617188 820.519531 482.804688 819.917969 483.757812 819.449219 C 485.9375 818.378906 487.257812 816.035156 487.042969 813.621094 Z M 482.078125 816.035156 C 481.105469 816.515625 479.890625 817.128906 478.46875 817.863281 C 477.515625 818.359375 476.347656 818.054688 475.753906 817.160156 L 473.214844 813.34375 C 472.828125 812.761719 472.753906 812.054688 473.011719 811.402344 C 473.273438 810.753906 473.8125 810.289062 474.496094 810.132812 L 480.394531 808.777344 C 480.992188 808.640625 481.597656 808.761719 482.097656 809.125 C 482.597656 809.488281 482.902344 810.027344 482.957031 810.640625 L 483.253906 813.960938 C 483.332031 814.832031 482.871094 815.648438 482.078125 816.035156 Z M 482.078125 816.035156 " fill-opacity="1" fill-rule="nonzero"/><path fill="#f1feac" d="M 446.859375 775.515625 C 446.480469 773.777344 445.351562 772.320312 443.765625 771.511719 C 442.183594 770.707031 440.339844 770.652344 438.710938 771.367188 L 430.3125 775.054688 C 428.839844 775.703125 427.71875 776.890625 427.15625 778.398438 C 426.59375 779.90625 426.660156 781.535156 427.347656 782.992188 L 428.714844 785.878906 C 429.710938 787.984375 431.835938 789.257812 434.070312 789.257812 C 434.65625 789.257812 435.253906 789.167969 435.839844 788.984375 L 443.757812 786.476562 C 446.6875 785.546875 448.402344 782.585938 447.746094 779.585938 Z M 442.609375 782.847656 L 434.691406 785.355469 C 433.691406 785.671875 432.601562 785.199219 432.15625 784.25 L 430.789062 781.363281 C 430.542969 780.847656 430.519531 780.265625 430.71875 779.730469 C 430.921875 779.191406 431.320312 778.769531 431.84375 778.539062 L 440.242188 774.851562 C 440.820312 774.597656 441.476562 774.617188 442.042969 774.902344 C 442.605469 775.191406 443.003906 775.710938 443.140625 776.328125 L 444.027344 780.398438 C 444.261719 781.464844 443.652344 782.519531 442.609375 782.847656 Z M 442.609375 782.847656 " fill-opacity="1" fill-rule="nonzero"/><path fill="#f1feac" d="M 487.871094 752.347656 L 481.914062 749.757812 C 479.203125 748.578125 476.015625 749.601562 474.496094 752.132812 L 472.929688 754.738281 C 472.203125 755.949219 471.933594 757.382812 472.171875 758.773438 C 472.410156 760.164062 473.140625 761.429688 474.226562 762.328125 L 478.058594 765.496094 C 479.15625 766.40625 480.488281 766.859375 481.824219 766.859375 C 483.195312 766.859375 484.570312 766.378906 485.679688 765.421875 L 489.371094 762.238281 C 490.921875 760.902344 491.660156 758.898438 491.355469 756.875 C 491.046875 754.855469 489.746094 753.160156 487.871094 752.347656 Z M 486.886719 759.355469 L 483.195312 762.539062 C 482.414062 763.210938 481.273438 763.222656 480.484375 762.566406 L 476.652344 759.398438 C 475.847656 758.730469 475.652344 757.59375 476.191406 756.695312 L 477.757812 754.089844 C 478.144531 753.441406 478.84375 753.074219 479.5625 753.074219 C 479.84375 753.074219 480.125 753.128906 480.394531 753.246094 L 486.351562 755.835938 C 487.03125 756.128906 487.480469 756.71875 487.59375 757.449219 C 487.703125 758.175781 487.445312 758.871094 486.886719 759.355469 Z M 486.886719 759.355469 " fill-opacity="1" fill-rule="nonzero"/><path fill="#f1feac" d="M 546.789062 749.296875 C 545.679688 747.839844 543.996094 746.992188 542.164062 746.96875 L 536.253906 746.894531 C 534.339844 746.867188 532.585938 747.734375 531.441406 749.269531 C 530.296875 750.800781 529.96875 752.730469 530.539062 754.558594 L 531.699219 758.277344 C 532.199219 759.890625 533.371094 761.210938 534.910156 761.90625 C 535.683594 762.25 536.507812 762.425781 537.335938 762.425781 C 538.164062 762.425781 538.988281 762.253906 539.757812 761.90625 L 545.367188 759.386719 C 547.019531 758.644531 548.222656 757.210938 548.667969 755.453125 C 549.117188 753.695312 548.742188 751.863281 547.644531 750.417969 Z M 544.980469 754.515625 C 544.824219 755.140625 544.394531 755.652344 543.804688 755.917969 L 538.199219 758.4375 C 537.640625 758.6875 537.03125 758.6875 536.472656 758.433594 C 535.917969 758.183594 535.511719 757.726562 535.328125 757.144531 L 534.171875 753.425781 C 533.96875 752.773438 534.085938 752.089844 534.492188 751.542969 C 534.894531 751.003906 535.503906 750.699219 536.175781 750.699219 C 536.183594 750.699219 536.195312 750.699219 536.203125 750.699219 L 542.117188 750.773438 C 542.765625 750.78125 543.367188 751.082031 543.761719 751.601562 L 544.617188 752.726562 C 545.007812 753.238281 545.140625 753.890625 544.980469 754.515625 Z M 544.980469 754.515625 " fill-opacity="1" fill-rule="nonzero"/><path fill="#f1feac" d="M 433.210938 744.4375 L 441.492188 738.863281 C 443.078125 737.796875 444.027344 736.089844 444.097656 734.179688 C 444.167969 732.273438 443.347656 730.5 441.847656 729.320312 L 438.609375 726.773438 C 436.070312 724.777344 432.359375 725.207031 430.34375 727.730469 L 424.40625 735.167969 C 423.40625 736.417969 422.964844 737.980469 423.15625 739.570312 C 423.351562 741.160156 424.160156 742.570312 425.429688 743.542969 L 426.320312 744.226562 C 427.378906 745.035156 428.644531 745.445312 429.914062 745.445312 C 431.0625 745.445312 432.210938 745.109375 433.210938 744.4375 Z M 428.636719 741.207031 L 427.742188 740.519531 C 427.289062 740.175781 427.003906 739.671875 426.933594 739.109375 C 426.863281 738.542969 427.023438 737.984375 427.378906 737.542969 L 433.316406 730.105469 C 434.035156 729.207031 435.351562 729.054688 436.257812 729.765625 L 439.496094 732.308594 C 440.027344 732.730469 440.320312 733.359375 440.296875 734.039062 C 440.269531 734.71875 439.933594 735.328125 439.367188 735.707031 L 431.085938 741.28125 C 430.339844 741.785156 429.351562 741.753906 428.636719 741.207031 Z M 428.636719 741.207031 " fill-opacity="1" fill-rule="nonzero"/><path fill="#f1feac" d="M 475.882812 646.800781 C 474.394531 646.042969 472.683594 646.035156 471.191406 646.785156 L 465.773438 649.492188 C 464.476562 650.140625 463.5 651.3125 463.097656 652.707031 C 462.699219 654.105469 462.898438 655.617188 463.65625 656.859375 C 465.125 659.273438 467.046875 662.589844 468.398438 664.945312 C 469.339844 666.589844 471.101562 667.558594 472.929688 667.558594 C 473.449219 667.558594 473.972656 667.480469 474.484375 667.316406 C 478.726562 665.96875 480.621094 665.0625 480.621094 663.25 C 480.621094 662.949219 480.621094 662.320312 478.65625 650.582031 C 478.378906 648.933594 477.371094 647.554688 475.882812 646.800781 Z M 473.332031 663.691406 C 472.710938 663.886719 472.023438 663.621094 471.699219 663.050781 C 470.335938 660.675781 468.398438 657.332031 466.90625 654.878906 C 466.699219 654.539062 466.644531 654.144531 466.753906 653.761719 C 466.867188 653.378906 467.121094 653.074219 467.476562 652.894531 L 472.894531 650.1875 C 473.296875 649.984375 473.757812 649.988281 474.15625 650.191406 C 474.558594 650.394531 474.828125 650.765625 474.902344 651.207031 C 476.082031 658.246094 476.535156 661.203125 476.710938 662.445312 C 476.179688 662.695312 475.171875 663.105469 473.332031 663.691406 Z M 473.332031 663.691406 " fill-opacity="1" fill-rule="nonzero"/><path fill="#f1feac" d="M 507.746094 625.414062 L 505.5 625.164062 C 502.726562 624.855469 500.214844 626.773438 499.78125 629.53125 C 499.464844 631.53125 499.242188 633.214844 499.117188 634.53125 C 498.863281 637.171875 498.980469 638.203125 499.621094 638.953125 C 500.015625 639.410156 500.582031 639.675781 501.179688 639.675781 L 506.265625 639.675781 C 508.699219 639.675781 510.785156 638.019531 511.335938 635.652344 L 512.242188 631.769531 C 512.582031 630.324219 512.28125 628.796875 511.421875 627.582031 C 510.566406 626.367188 509.226562 625.578125 507.746094 625.414062 Z M 508.539062 630.90625 L 507.632812 634.785156 C 507.484375 635.425781 506.921875 635.871094 506.265625 635.871094 L 502.824219 635.871094 C 502.886719 634.890625 503.0625 633.152344 503.539062 630.121094 C 503.65625 629.378906 504.332031 628.863281 505.078125 628.945312 L 507.328125 629.195312 C 507.871094 629.253906 508.179688 629.585938 508.316406 629.777344 C 508.453125 629.972656 508.660156 630.375 508.539062 630.90625 Z M 508.539062 630.90625 " fill-opacity="1" fill-rule="nonzero"/><path fill="#f1feac" d="M 536.820312 669.175781 L 529.191406 666.484375 C 527.34375 665.832031 525.308594 666.261719 523.882812 667.609375 L 521.285156 670.066406 C 519.488281 671.761719 519.132812 674.515625 520.441406 676.609375 L 522.980469 680.671875 C 523.9375 682.203125 525.605469 683.117188 527.390625 683.117188 C 527.519531 683.117188 527.648438 683.113281 527.777344 683.105469 L 535.964844 682.503906 C 537.410156 682.398438 538.753906 681.6875 539.65625 680.554688 C 540.558594 679.421875 540.949219 677.953125 540.730469 676.519531 L 540.234375 673.296875 C 539.941406 671.394531 538.632812 669.816406 536.820312 669.175781 Z M 536.679688 678.183594 C 536.433594 678.496094 536.082031 678.679688 535.6875 678.710938 L 527.5 679.308594 C 526.976562 679.347656 526.484375 679.097656 526.207031 678.652344 L 523.667969 674.59375 C 523.316406 674.027344 523.414062 673.289062 523.894531 672.832031 L 526.496094 670.375 C 526.761719 670.125 527.105469 669.992188 527.457031 669.992188 C 527.613281 669.992188 527.769531 670.019531 527.925781 670.074219 L 535.554688 672.765625 C 536.042969 672.9375 536.394531 673.363281 536.472656 673.875 L 536.96875 677.097656 C 537.03125 677.488281 536.925781 677.875 536.679688 678.183594 Z M 536.679688 678.183594 " fill-opacity="1" fill-rule="nonzero"/></svg>